<?xml version="1.0" encoding="UTF-8"?><svg id="a" xmlns="http://www.w3.org/2000/svg" viewBox="0 0 1317.5482 1969.8113"><path d="M40.2218,1837.7053c0-571.4138,0-1142.8276,0-1714.2415.3783-1.1405.8919-2.2555,1.1119-3.4258,1.0246-5.4505,1.6878-10.9843,2.9932-16.3637,3.8432-15.8383,11.2664-29.824,21.6302-42.4548,14.7477-17.9736,33.2019-30.0862,55.4178-36.5325,5.8356-1.6933,11.841-2.801,17.7685-4.1776,351.0548,0,702.1096,0,1053.1643,0,3.6913.9068,7.3723,1.8585,11.0757,2.7131,25.6088,5.9094,46.4372,19.287,62.7964,39.8408,15.3477,19.2829,23.7614,41.3735,23.7695,65.7912.186,567.8479.1515,1135.6957.0532,1703.5437-.0012,6.8617-.6519,13.8916-2.2214,20.5549-6.0083,25.5117-18.6928,47.1538-39.2733,63.6837-20.8322,16.7322-45.0116,24.7872-71.5019,24.7996-295.5637.1364-591.1273.1314-886.691.0412-49.0606-.015-98.1252-.3665-147.1777-1.182-9.1599-.1523-18.5816-2.3133-27.3428-5.1912-21.6021-7.0963-39.1426-20.3773-52.8498-38.4693-10.8341-14.2998-18.0116-30.3009-20.6314-48.2027-.5269-3.6007-1.3856-7.1527-2.0913-10.7272ZM578.2486,172.9365c-.4068,3.4821-1.1156,6.7351-1.1195,9.989-.1423,117.5946-.2578,235.1894-.2903,352.7841-.0202,73.455.1136,146.9099.1508,220.3649.0404,79.619-.1588,159.239.2502,238.856.0796,15.5076,1.3212,31.206,4.011,46.4664,7.8745,44.6741,30.0418,81.6313,64.1616,111.1734,22.2632,19.2764,47.9864,32.5899,76.3757,40.7688,18.7762,5.4093,37.9352,7.0032,57.1706,5.1247,19.9092-1.9445,38.5522-8.7793,56.5368-17.5971,20.3154-9.9604,39.5081-21.5678,56.1711-36.9364,17.9769-16.5806,31.746-36.2314,41.9674-58.5176,11.0976-24.1967,17.8197-49.4887,19.4626-75.97,1.5413-24.8453-1.2486-49.3685-8.9621-73.1225-11.5736-35.6418-31.1193-66.1873-58.7215-91.6721-14.4461-13.338-30.8438-23.5565-48.8042-30.955-31.1393-12.8272-63.5987-16.2671-96.9772-11.4303-26.8982,3.8978-51.8619,12.8317-74.8061,27.4612-6.3405,4.0429-12.9487,7.6657-20.4155,12.0587V172.9365h-66.1615ZM248.8341,1154.6169c1.8238.644,2.6286.8232,3.334,1.1926,19.1905,10.0488,38.1994,20.4623,57.5955,30.0959,25.3819,12.6067,52.4128,16.8655,80.2181,11.4754,38.4843-7.4602,72.4294-25.0048,101.9734-50.5872,18.8626-16.3332,33.2386-36.3044,43.7693-59.0616,18.5283-40.0406,25.2426-81.6634,17.9608-125.3928-6.8857-41.351-26.013-76.4432-54.3936-106.7494-12.4051-13.2469-26.6454-24.3705-42.3813-33.4373-22.603-13.0235-46.9537-20.3114-73.0503-21.7284-25.1085-1.363-49.6145,2.0932-73.6472,9.1541-27.2947,8.0192-50.6075,22.9483-70.4109,43.0076-17.7961,18.026-31.5963,39.0291-41.7512,62.3395-11.2245,25.7656-17.6327,52.6637-18.5563,80.752-.4377,13.3102-.0731,26.6467-.0734,39.9713-.0057,242.1902-.0234,484.3804.0256,726.5706.002,9.6292.6755,19.2572.9572,28.8881.1099,3.7572,1.3811,5.4737,5.6374,5.4234,19.3124-.2288,38.6291-.0927,57.9443-.1159,1.4406-.0017,2.881-.2248,4.8487-.3889v-641.4089ZM1041.1982,172.7504c-2.5036,0-4.2965,0-6.0894,0-17.3185,0-34.637-.0002-51.9555-.0002-10.383,0-10.4181,0-10.4353,10.7121-.0765,47.6409-.0772,95.282-.2063,142.9228-.1964,72.4368-.6704,144.8733-.6672,217.3099.0033,75.1024.4961,150.2047.6613,225.3073.1671,75.9589.0024,151.9193.4581,227.8762.0842,14.025,1.4187,28.2193,3.9118,42.0218,9.699,53.698,37.3462,96.0124,82.7511,126.3993,26.305,17.6044,55.5639,27.6372,86.7353,32.2948,4.8012.7175,9.6938.8215,14.5768,1.2119v-73.6154c-5.7612-.2963-11.2207-.3537-16.6274-.9179-5.3996-.5636-10.9297-1.0286-16.0846-2.5882-21.7859-6.5914-38.8328-20.109-53.4239-37.2183-23.0906-27.0757-34.8748-58.2221-34.3999-93.8833.1394-10.4697.6702-20.9366.6852-31.4053.141-98.1147.2555-196.2295.2819-294.3442.0188-69.7963-.1405-139.5927-.1644-209.389-.0313-91.6204-.0076-183.2408-.0076-274.8612v-7.8331ZM866.6025,1643.3152v90.5548c-6.3137-8.996-11.6832-18.213-16.996-27.4625-11.6799-20.3339-23.3151-40.6937-35.0423-61.0001-.5731-.9924-1.8363-2.2307-2.8012-2.2508-8.4386-.1769-16.8825-.1024-25.4842-.1024v144.0959h26.172v-89.753c1.2001,1.5329,1.6303,1.9647,1.9247,2.475,16.2602,28.173,32.4927,56.362,48.8116,84.5009.7324,1.2627,2.2117,2.9313,3.3845,2.965,8.7544.2506,17.5193.1362,26.4456.1362v-144.159h-26.4147ZM350.1776,1739.3958c.4205,3.0663.6208,5.8127,1.191,8.4801,4.2403,19.8373,14.6898,34.1738,35.2862,39.3029,11.6081,2.8907,23.3978,2.9795,35.0896.9847,9.2005-1.5697,18.032-4.6136,25.0156-11.2659,10.6493-10.1439,14.1369-22.8454,12.8816-37.1751-1.103-12.5916-5.7395-23.4519-17.2154-29.6035-7.7886-4.1749-16.3341-7.0385-24.7252-9.9595-9.19-3.199-18.6981-5.4923-27.8558-8.7722-4.5302-1.6225-7.8315-5.3797-7.9381-10.5405-.1041-5.0337,3.2804-8.1996,7.4602-10.3221,6.9241-3.5161,14.27-3.7832,21.8085-2.4786,6.1569,1.0656,12.1292,4.006,13.337,9.7855,2.3695,11.3381,9.2301,11.2782,18.0185,9.8758,4.4475-.7096,9.1016-.124,13.828-.124-.338-3.3652-.5831-5.6563-.7961-7.9502-1.5856-17.0817-13.7346-31.2462-30.1477-35.6609-11.4249-3.073-22.954-3.8433-34.5056-1.716-14.2911,2.6318-26.2822,8.8014-32.498,23.1414-6.5854,15.1925-3.477,35.7924,11.2314,47.2429,8.0876,6.2963,17.699,8.8163,27.1687,11.7259,8.6774,2.6662,17.7521,4.3082,26.0796,7.7761,10.6783,4.4469,12.165,15.0541,4.1293,23.4312-7.7829,8.1136-17.6999,8.6613-27.7515,6.9102-10.1311-1.7651-16.8088-8.0475-19.6585-18.1304-.7581-2.6823-1.6797-5.3183-2.6066-8.2277-8.8342,1.0768-17.4909,2.132-26.8267,3.27ZM480.7591,1511.4643c-.2143.7993-.4954,1.2867-.4381,1.7303.2534,1.9631.5325,3.9283.9304,5.8665,4.0792,19.8679,14.9221,33.9968,35.1207,38.9797,16.3766,4.04,32.8628,3.5997,48.939-2.3051,8.0132-2.9435,14.4142-7.744,19.2411-14.9565,6.7977-10.1574,8.1126-21.3718,6.6199-32.9443-1.4984-11.6172-7.5686-20.5992-17.7151-26.8393-10.3618-6.3729-22.1322-8.4789-33.5116-11.8802-7.5618-2.2605-15.25-4.5884-22.2327-8.1569-6.7682-3.4589-7.0582-11.9265-1.4825-16.1752,15.987-12.1822,37.4451-5.3708,43.1725,13.6927.0842.2801.3993.4911-.0015.021,8.7377,0,16.8461.014,24.9543-.0187.9627-.0039,1.9243-.2634,2.8304-.3963,1.7141-15.6763-8.7452-32.9562-23.4354-38.7527-15.8045-6.2361-32.1213-6.7509-48.355-2.6609-25.9641,6.5414-38.0496,33.457-25.6261,56.1514,6.9176,12.6364,19.0636,17.7786,31.9561,21.6984,11.0514,3.3598,22.3626,6.033,33.1091,10.1768,9.137,3.5231,10.6143,12.9697,5.1697,21.039-7.3943,10.9591-26.8849,11.2065-35.9811,7.0917-9.2167-4.1693-13.0651-12.1582-15.528-21.2757-.331-1.2257-1.8856-3.1335-2.7157-3.0549-8.3799.793-16.7268,1.934-25.0204,2.9694ZM599.976,1511.5506c.4481,2.8477.7203,5.1219,1.1714,7.36,4.0068,19.8807,14.8325,33.8709,34.976,39.1314,14.035,3.6652,28.3132,3.3895,42.3678-.056,11.265-2.7616,20.8002-8.264,26.9536-18.7588,10.8949-18.5817,9.5183-51.5911-19.9275-62.094-9.7818-3.4889-19.9694-5.8227-29.8594-9.0309-6.2605-2.031-12.6685-4.0669-18.3651-7.2546-6.3782-3.569-6.6219-11.8056-1.2745-15.9688,8.5691-6.6715,25.8747-8.0231,34.2073-1.2936,4.5506,3.6749,7.1287,9.7941,11.3184,15.8555,7.4484-.3681,16.616-.8212,25.7254-1.2713.7715-17.8145-9.0249-33.0066-24.9133-39.1899-15.5409-6.0479-31.5462-6.3508-47.3735-2.166-25.8503,6.8347-37.6264,33.2566-25.386,55.8773,6.8551,12.6686,19.0042,17.8565,31.8858,21.8038,11.2022,3.4328,22.6777,6.1299,33.5861,10.3157,8.7556,3.3598,10.1296,12.9191,4.9416,20.8088-8.1858,12.4485-33.1533,11.8745-41.8631,3.6437-5.3244-5.0317-7.9566-11.2295-9.8067-18.0537-.3063-1.1301-2.0601-2.7727-3.0025-2.6829-8.2214.7835-16.4104,1.9075-25.3617,3.0243ZM763.1087,1643.3577h-99.7659v143.8028h101.6679v-25.5272h-74.0415v-37.0738h67.0239v-25.864h-66.862v-30.2704h71.9777v-25.0674ZM1151.8705,1643.4939h-99.9449v143.5981h101.8855v-25.243h-74.0844v-37.4344h67.0641v-25.5002h-67.0728v-30.455h72.1525v-24.9655ZM343.191,1558.5208c8.655,0,15.9811-.3115,23.2657.1044,5.251.2999,8.0591-1.0403,9.4486-6.6086,1.7938-7.1885,4.8015-14.0723,7.2517-21.0993,1.013-2.9053,2.4773-4.5301,6.0698-4.4752,14.9808.2285,29.9674.148,44.9511.053,2.9053-.0184,4.4664.8473,5.42,3.7998,1.9292,5.9734,4.4193,11.7629,6.532,17.6804,3.7592,10.5293,3.7137,10.5455,15.0001,10.5455h19.6007c-.4057-1.902-.4817-2.883-.8215-3.7621-17.4057-45.034-34.862-90.0485-52.1889-135.1128-1.0277-2.6728-2.3916-3.5506-5.0946-3.4871-5.9904.1411-11.9864.0416-17.9801.0414q-8.4214-.0002-11.2574,7.628c-.1146.3083-.0928.6676-.2084.9753-13.7708,36.6808-27.5592,73.3551-41.3172,110.0408-2.8234,7.5288-5.5341,15.1-8.6717,23.6767ZM711.9064,1558.493c10.1247,0,19.0868.1298,28.0359-.1545,1.1985-.0381,2.8772-1.9642,3.4023-3.3653,2.9018-7.7417,5.4425-15.6178,8.2684-23.3893.9268-2.5488,1.6505-5.1854,5.6043-5.1293,15.3141.2171,30.6334.1245,45.9503.053,2.7001-.0126,4.1052.8535,5.0531,3.5845,2.9271,8.4334,6.1609,16.7636,9.4521,25.064.5129,1.2934,1.9243,3.1458,2.9612,3.173,9.4156.2464,18.8403.1443,28.9385.1443-.5745-2.0145-.8256-3.257-1.276-4.4224-17.2861-44.7262-34.629-89.4305-51.8037-134.1994-1.1202-2.9201-2.573-3.7702-5.4416-3.6951-5.8232.1526-11.6543-.0271-17.4802.0593-10.5122.1558-7.7244-1.6983-11.5694,8.4011-13.9993,36.7704-27.7496,73.6354-41.5639,110.476-2.7728,7.3944-5.414,14.8383-8.5313,23.4002ZM592.6494,1684.1412c-3.669-12.4144-8.13-23.3287-18.0603-31.0673-13.3317-10.3893-28.4304-12.8336-44.9612-11.2793-24.8332,2.3348-44.6938,21.5214-50.6485,44.7446-3.8517,15.0217-4.6834,30.0741-2.8096,45.3903,1.8625,15.2246,7.2421,29.0004,18.0077,40.0096,14.2171,14.539,31.8121,19.0803,51.8588,16.7128,25.2289-2.9796,40.4225-20.8077,45.9997-43.2155.2704-1.0864-.4217-3.3285-1.1952-3.6183-8.2683-3.099-16.6435-5.9124-24.9387-8.7866-1.4489,4.3953-2.5142,8.2188-3.9572,11.8938-4.3413,11.0564-14.063,18.0546-24.9658,18.1735-14.7997.1611-27.4358-9.4376-30.1169-25.1149-2.0158-11.7871-2.2963-24.0222-1.8989-36.0098.2109-6.3601,2.5719-13.1126,5.5852-18.8324,10.6798-20.2712,38.5343-21.3139,50.1274-2.1543,1.8364,3.0349,2.9022,6.5364,4.5305,10.2987,9.112-2.3724,18.0291-4.694,27.4429-7.1449ZM1031.3087,1684.1277c-3.6543-12.4211-8.0947-23.2608-17.8139-30.8994-13.4023-10.5329-28.6803-13.0893-45.4102-11.4096-24.8196,2.4917-44.0374,21.1997-50.2822,43.9393-4.3349,15.7849-5.0693,31.7638-2.8326,47.8532,2.0038,14.4139,7.368,27.6023,17.6358,38.1219,14.3471,14.6988,32.0415,19.3417,52.2767,16.8917,25.4134-3.077,40.3497-21.1624,45.8534-43.3758.2676-1.0802-.8625-3.3911-1.8514-3.7593-8.0164-2.9855-16.1548-5.6433-24.4904-8.4807-.6165,2.2691-1.1305,4.1566-1.6423,6.0446-3.7683,13.9018-13.6544,23.2825-25.3194,24.0243-13.5602.8623-25.1889-5.7051-29.9977-19.176-6.6907-18.7426-7.2088-38.2411-.1054-56.9407,7.1992-18.9521,29.4645-25.9109,44.4235-14.1457,5.4187,4.2615,8.7297,11.205,13.8236,18.0243,7.2604-1.8938,16.3032-4.2524,25.7325-6.7119ZM889.6459,1470.9932c-1.6312-2.5451-2.8292-4.2399-3.8503-6.0353-8.5824-15.0888-17.1481-30.187-25.6766-45.3061-1.4503-2.5711-3.3707-3.6075-6.4338-3.5254-8.1483.2185-16.3064.0543-24.4603.0952-1.3801.007-2.7588.2759-4.1355.4235.0933.9244.021,1.3117.1734,1.5619,13.7624,22.5855,27.2661,45.336,41.4593,67.6478,5.5203,8.6782,8.9091,17.1927,8.2571,27.7511-.7986,12.9353-.1902,25.9576-.1902,38.9422v5.511h28.4401c0-18.5953-.0755-36.7313.0879-54.8651.0224-2.4872.7008-5.2845,1.9741-7.396,14.2565-23.6408,28.6984-47.1694,43.0617-70.7457,1.5647-2.5684,2.9496-5.2466,4.946-8.8187-11.2749,0-21.2178-.0803-31.1553.1134-1.0984.0215-2.5454,1.3903-3.1879,2.5049-4.79,8.3091-9.4091,16.7166-14.0995,25.0834-4.8988,8.7386-9.8171,17.466-15.2103,27.058ZM612.3053,1643.237v143.8741h27.9182v-143.8741h-27.9182Z" fill="#025187"/><path d="M578.2486,172.9365h66.1615v668.8462c7.4668-4.393,14.075-8.0158,20.4155-12.0587,22.9442-14.6295,47.9078-23.5634,74.8061-27.4612,33.3785-4.8368,65.838-1.3969,96.9772,11.4303,17.9604,7.3985,34.3581,17.617,48.8042,30.955,27.6022,25.4848,47.1479,56.0303,58.7215,91.6721,7.7134,23.754,10.5034,48.2772,8.9621,73.1225-1.6429,26.4813-8.3651,51.7734-19.4626,75.97-10.2214,22.2862-23.9904,41.937-41.9674,58.5176-16.663,15.3686-35.8556,26.976-56.1711,36.9364-17.9846,8.8178-36.6276,15.6526-56.5368,17.5971-19.2354,1.8786-38.3944.2847-57.1706-5.1247-28.3893-8.1789-54.1125-21.4924-76.3757-40.7688-34.1197-29.5421-56.2871-66.4993-64.1616-111.1734-2.6899-15.2604-3.9314-30.9588-4.011-46.4664-.409-79.6171-.2099-159.237-.2502-238.856-.0372-73.455-.1711-146.9099-.1508-220.3649.0325-117.5947.148-235.1894.2903-352.7841.004-3.2539.7127-6.5069,1.1195-9.989ZM766.131,1126.1821c15.2678,1.3871,30.3421-2.471,44.7403-9.5346,20.5137-10.0637,37.0115-24.9389,50.0921-43.4128,15.6463-22.0973,25.016-46.6205,24.7166-74.0773-.2534-23.2391-6.107-45.1026-17.5059-65.4583-11.195-19.9918-26.6276-35.738-46.6437-46.8502-25.2664-14.0269-52.3043-17.2123-80.3655-11.8195-23.5348,4.5228-43.8735,15.7047-60.6425,32.7114-11.4454,11.6078-20.1576,25.2361-26.2184,40.5633-9.0434,22.8699-12.7117,46.5173-8.4405,70.6673,5.8386,33.012,22.5777,60.1216,48.4054,81.4687,20.5554,16.9896,43.5749,27.5054,71.862,25.7419Z" fill="#fff"/><path d="M248.8341,1154.6169v641.4089c-1.9677.1641-3.4081.3872-4.8487.3889-19.3151.0232-38.6318-.1129-57.9443.1159-4.2562.0503-5.5275-1.6661-5.6374-5.4234-.2817-9.6309-.9553-19.2589-.9572-28.8881-.0489-242.1902-.0313-484.3804-.0256-726.5706.0003-13.3246-.3643-26.6611.0734-39.9713.9236-28.0883,7.3319-54.9864,18.5563-80.752,10.1549-23.3105,23.9551-44.3136,41.7512-62.3395,19.8034-20.0593,43.1162-34.9884,70.4109-43.0076,24.0327-7.0609,48.5387-10.5171,73.6472-9.1541,26.0966,1.4169,50.4474,8.7048,73.0503,21.7284,15.7359,9.0668,29.9762,20.1904,42.3813,33.4373,28.3806,30.3062,47.5079,65.3984,54.3936,106.7494,7.2818,43.7294.5675,85.3522-17.9608,125.3928-10.5306,22.7573-24.9067,42.7284-43.7693,59.0616-29.544,25.5824-63.4891,43.127-101.9734,50.5872-27.8053,5.3901-54.8362,1.1313-80.2181-11.4754-19.3961-9.6337-38.405-20.0472-57.5955-30.0959-.7054-.3693-1.5102-.5486-3.334-1.1926ZM247.2905,999.5597c.5726,6.6016.5697,13.3142,1.8171,19.7856,5.5094,28.5815,18.8242,52.8895,39.5937,73.4766,23.3718,23.1664,50.9774,35.0588,83.8919,34.1198,15.4158-.4397,30.1314-4.1936,43.7705-11.4543,25.9559-13.8176,45.3104-34.3184,58.6272-60.3193,12.2521-23.922,16.8033-49.2422,12.2854-76.1195-5.3302-31.7093-18.9381-58.6193-43.8755-79.3558-26.7704-22.2607-57.6716-30.1006-91.8615-25.8962-32.9586,4.053-58.805,20.7287-78.3874,46.7963-17.4033,23.1671-25.4613,49.8661-25.8615,78.9666Z" fill="#fff"/><path d="M1041.1982,172.7504v7.8331c0,91.6204-.0237,183.2408.0076,274.8612.0239,69.7963.1833,139.5927.1644,209.389-.0264,98.1148-.1409,196.2295-.2819,294.3442-.0151,10.4687-.5458,20.9356-.6852,31.4053-.4749,35.6612,11.3093,66.8076,34.3999,93.8833,14.5911,17.1093,31.638,30.6268,53.4239,37.2183,5.155,1.5596,10.685,2.0246,16.0846,2.5882,5.4067.5642,10.8663.6217,16.6274.9179v73.6154c-4.883-.3903-9.7756-.4944-14.5768-1.2119-31.1714-4.6576-60.4303-14.6904-86.7353-32.2948-45.4049-30.3869-73.0521-72.7014-82.7511-126.3993-2.4931-13.8024-3.8277-27.9968-3.9118-42.0218-.4558-75.9569-.291-151.9173-.4581-227.8762-.1653-75.1026-.658-150.2049-.6613-225.3073-.0032-72.4366.4708-144.8732.6672-217.3099.1291-47.6408.1298-95.2819.2063-142.9228.0172-10.7121.0523-10.7121,10.4353-10.7121,17.3185,0,34.637.0001,51.9555.0002,1.7929,0,3.5858,0,6.0894,0Z" fill="#fff"/><path d="M866.6025,1643.3152h26.4147v144.159c-8.9263,0-17.6912.1145-26.4456-.1362-1.1728-.0337-2.6521-1.7022-3.3845-2.965-16.3189-28.1389-32.5514-56.328-48.8116-84.5009-.2944-.5103-.7246-.9421-1.9247-2.475v89.753h-26.172v-144.0959c8.6016,0,17.0456-.0746,25.4842.1024.9649.0201,2.2282,1.2585,2.8012,2.2508,11.7272,20.3064,23.3624,40.6662,35.0423,61.0001,5.3129,9.2494,10.6823,18.4664,16.996,27.4625v-90.5548Z" fill="#fff"/><path d="M350.1776,1739.3958c9.3358-1.138,17.9925-2.1932,26.8267-3.27.9268,2.9094,1.8485,5.5454,2.6066,8.2277,2.8497,10.0829,9.5275,16.3653,19.6585,18.1304,10.0516,1.7512,19.9686,1.2034,27.7515-6.9102,8.0358-8.377,6.549-18.9843-4.1293-23.4312-8.3275-3.4679-17.4022-5.1099-26.0796-7.7761-9.4696-2.9096-19.0811-5.4296-27.1687-11.7259-14.7084-11.4505-17.8167-32.0504-11.2314-47.2429,6.2158-14.34,18.2069-20.5096,32.498-23.1414,11.5515-2.1272,23.0807-1.3569,34.5056,1.716,16.413,4.4147,28.5621,18.5792,30.1477,35.6609.2129,2.2939.4581,4.585.7961,7.9502-4.7264,0-9.3805-.5857-13.828.124-8.7884,1.4025-15.649,1.4624-18.0185-9.8758-1.2078-5.7794-7.1801-8.7199-13.337-9.7855-7.5385-1.3046-14.8844-1.0375-21.8085,2.4786-4.1797,2.1225-7.5642,5.2884-7.4602,10.3221.1066,5.1608,3.4079,8.9181,7.9381,10.5405,9.1577,3.2799,18.6658,5.5732,27.8558,8.7722,8.3911,2.9209,16.9366,5.7845,24.7252,9.9595,11.4759,6.1516,16.1124,17.0119,17.2154,29.6035,1.2553,14.3297-2.2323,27.0311-12.8816,37.1751-6.9836,6.6523-15.8151,9.6961-25.0156,11.2659-11.6918,1.9948-23.4815,1.906-35.0896-.9847-20.5965-5.1291-31.0459-19.4656-35.2862-39.3029-.5702-2.6674-.7705-5.4139-1.191-8.4801Z" fill="#fff"/><path d="M480.7591,1511.4643c8.2936-1.0354,16.6406-2.1764,25.0204-2.9694.8301-.0786,2.3847,1.8293,2.7157,3.0549,2.4629,9.1175,6.3112,17.1064,15.528,21.2757,9.0961,4.1148,28.5867,3.8674,35.9811-7.0917,5.4445-8.0693,3.9672-17.5159-5.1697-21.039-10.7466-4.1438-22.0577-6.8169-33.1091-10.1768-12.8924-3.9198-25.0385-9.062-31.9561-21.6984-12.4235-22.6944-.338-49.61,25.6261-56.1514,16.2337-4.09,32.5505-3.5752,48.355,2.6609,14.6902,5.7965,25.1495,23.0765,23.4354,38.7527-.9061.1329-1.8677.3924-2.8304.3963-8.1082.0327-16.2166.0187-24.9543.0187.4007.4701.0857.2592.0015-.021-5.7274-19.0635-27.1855-25.8749-43.1725-13.6927-5.5757,4.2487-5.2857,12.7163,1.4825,16.1752,6.9826,3.5685,14.6709,5.8964,22.2327,8.1569,11.3794,3.4013,23.1498,5.5073,33.5116,11.8802,10.1464,6.2402,16.2166,15.2221,17.7151,26.8393,1.4927,11.5725.1778,22.7869-6.6199,32.9443-4.8269,7.2125-11.2278,12.013-19.2411,14.9565-16.0761,5.9049-32.5624,6.3451-48.939,2.3051-20.1985-4.9829-31.0415-19.1118-35.1207-38.9797-.3979-1.9382-.6771-3.9034-.9304-5.8665-.0573-.4437.2238-.931.4381-1.7303Z" fill="#fff"/><path d="M599.976,1511.5506c8.9513-1.1168,17.1403-2.2408,25.3617-3.0243.9424-.0898,2.6962,1.5528,3.0025,2.6829,1.85,6.8241,4.4823,13.0219,9.8067,18.0537,8.7099,8.2309,33.6773,8.8048,41.8631-3.6437,5.188-7.8897,3.814-17.4489-4.9416-20.8088-10.9084-4.1859-22.3839-6.8829-33.5861-10.3157-12.8816-3.9474-25.0307-9.1352-31.8858-21.8038-12.2403-22.6206-.4643-49.0425,25.386-55.8773,15.8273-4.1848,31.8326-3.8818,47.3735,2.166,15.8884,6.1833,25.6848,21.3754,24.9133,39.1899-9.1095.4501-18.2771.9032-25.7254,1.2713-4.1896-6.0614-6.7677-12.1806-11.3184-15.8555-8.3326-6.7294-25.6382-5.3779-34.2073,1.2936-5.3474,4.1632-5.1037,12.3998,1.2745,15.9688,5.6965,3.1877,12.1046,5.2236,18.3651,7.2546,9.8899,3.2082,20.0775,5.542,29.8594,9.0309,29.4458,10.5029,30.8224,43.5122,19.9275,62.094-6.1534,10.4947-15.6886,15.9972-26.9536,18.7588-14.0546,3.4455-28.3328,3.7213-42.3678.056-20.1435-5.2605-30.9691-19.2506-34.976-39.1314-.4511-2.2381-.7233-4.5123-1.1714-7.36Z" fill="#fff"/><path d="M763.1087,1643.3577v25.0674h-71.9777v30.2704h66.862v25.864h-67.0239v37.0738h74.0415v25.5272h-101.6679v-143.8028h99.7659Z" fill="#fff"/><path d="M1151.8705,1643.4939v24.9655h-72.1525v30.455h67.0728v25.5002h-67.0641v37.4344h74.0844v25.243h-101.8855v-143.5981h99.9449Z" fill="#fff"/><path d="M343.191,1558.5208c3.1376-8.5766,5.8483-16.1479,8.6717-23.6767,13.758-36.6857,27.5464-73.36,41.3172-110.0408.1156-.3077.0938-.6669.2084-.9753q2.8342-7.6285,11.2574-7.628c5.9937.0002,11.9897.0997,17.9801-.0414,2.703-.0634,4.0669.8143,5.0946,3.4871,17.327,45.0643,34.7833,90.0788,52.1889,135.1128.3398.8791.4158,1.8601.8215,3.7621h-19.6007c-11.2865,0-11.241-.0162-15.0001-10.5455-2.1126-5.9175-4.6028-11.707-6.532-17.6804-.9536-2.9526-2.5147-3.8183-5.42-3.7998-14.9837.0951-29.9703.1756-44.9511-.053-3.5925-.0549-5.0568,1.5699-6.0698,4.4752-2.4502,7.027-5.4579,13.9108-7.2517,21.0993-1.3895,5.5683-4.1977,6.9086-9.4486,6.6086-7.2846-.416-14.6108-.1044-23.2657-.1044ZM411.9393,1454.2051c-.5131-.076-1.0261-.1522-1.5392-.2282-5.4816,15.506-10.9633,31.0119-16.5259,46.7469h34.7245c-5.7087-15.9405-11.1841-31.2296-16.6594-46.5187Z" fill="#fff"/><path d="M711.9064,1558.493c3.1173-8.5619,5.7585-16.0057,8.5313-23.4002,13.8143-36.8406,27.5646-73.7057,41.5639-110.476,3.845-10.0994,1.0572-8.2453,11.5694-8.4011,5.8259-.0864,11.657.0933,17.4802-.0593,2.8686-.075,4.3214.775,5.4416,3.6951,17.1748,44.7689,34.5177,89.4732,51.8037,134.1994.4504,1.1654.7015,2.4079,1.276,4.4224-10.0982,0-19.523.102-28.9385-.1443-1.0368-.0272-2.4483-1.8797-2.9612-3.173-3.2912-8.3004-6.525-16.6306-9.4521-25.064-.9479-2.731-2.353-3.597-5.0531-3.5845-15.3169.0715-30.6362.1641-45.9503-.053-3.9538-.0561-4.6775,2.5805-5.6043,5.1293-2.8259,7.7715-5.3666,15.6476-8.2684,23.3893-.5252,1.4011-2.2039,3.3273-3.4023,3.3653-8.9491.2843-17.9113.1545-28.0359.1545ZM762.5331,1500.8108h34.7975c-5.7317-16.0029-11.2467-31.4008-16.7617-46.7988-.4666-.0504-.9332-.1009-1.3998-.1513-5.5054,15.5373-11.0108,31.0746-16.636,46.9501Z" fill="#fff"/><path d="M592.6494,1684.1412c-9.4139,2.4509-18.331,4.7725-27.4429,7.1449-1.6283-3.7623-2.6942-7.2638-4.5305-10.2987-11.5931-19.1596-39.4476-18.1169-50.1274,2.1543-3.0133,5.7198-5.3744,12.4723-5.5852,18.8324-.3974,11.9876-.1169,24.2227,1.8989,36.0098,2.6811,15.6773,15.3171,25.2759,30.1169,25.1149,10.9028-.1188,20.6244-7.1171,24.9658-18.1735,1.4431-3.675,2.5083-7.4985,3.9572-11.8938,8.2952,2.8742,16.6704,5.6877,24.9387,8.7866.7735.2898,1.4656,2.5318,1.1952,3.6183-5.5772,22.4078-20.7707,40.2359-45.9997,43.2155-20.0468,2.3675-37.6418-2.1738-51.8588-16.7128-10.7655-11.0093-16.1451-24.7851-18.0077-40.0096-1.8738-15.3162-1.0421-30.3686,2.8096-45.3903,5.9547-23.2232,25.8153-42.4098,50.6485-44.7446,16.5308-1.5542,31.6295.89,44.9612,11.2793,9.9304,7.7386,14.3913,18.6529,18.0603,31.0673Z" fill="#fff"/><path d="M1031.3087,1684.1277c-9.4293,2.4595-18.4721,4.8181-25.7325,6.7119-5.0939-6.8192-8.405-13.7627-13.8236-18.0243-14.959-11.7652-37.2242-4.8063-44.4235,14.1457-7.1034,18.6996-6.5853,38.1982.1054,56.9407,4.8088,13.4708,16.4375,20.0383,29.9977,19.176,11.665-.7417,21.5511-10.1225,25.3194-24.0243.5118-1.888,1.0257-3.7754,1.6423-6.0446,8.3356,2.8375,16.474,5.4952,24.4904,8.4807.9888.3682,2.119,2.6791,1.8514,3.7593-5.5037,22.2134-20.44,40.2988-45.8534,43.3758-20.2352,2.45-37.9296-2.1929-52.2767-16.8917-10.2679-10.5196-15.632-23.708-17.6358-38.1219-2.2368-16.0894-1.5023-32.0683,2.8326-47.8532,6.2449-22.7396,25.4626-41.4476,50.2822-43.9393,16.7299-1.6797,32.0079.8767,45.4102,11.4096,9.7192,7.6386,14.1597,18.4783,17.8139,30.8994Z" fill="#fff"/><path d="M889.6459,1470.9932c5.3932-9.5919,10.3115-18.3194,15.2103-27.058,4.6904-8.3668,9.3094-16.7743,14.0995-25.0834.6425-1.1146,2.0895-2.4834,3.1879-2.5049,9.9375-.1936,19.8804-.1134,31.1553-.1134-1.9964,3.5721-3.3814,6.2503-4.946,8.8187-14.3633,23.5762-28.8052,47.1049-43.0617,70.7457-1.2733,2.1115-1.9517,4.9088-1.9741,7.396-.1634,18.1338-.0879,36.2698-.0879,54.8651h-28.4401v-5.511c0-12.9846-.6085-26.0069.1902-38.9422.652-10.5584-2.7367-19.073-8.2571-27.7511-14.1931-22.3118-27.6969-45.0623-41.4593-67.6478-.1525-.2503-.0801-.6375-.1734-1.5619,1.3767-.1476,2.7554-.4166,4.1355-.4235,8.1539-.0409,16.312.1234,24.4603-.0952,3.0631-.0821,4.9835.9543,6.4338,3.5254,8.5284,15.1192,17.0942,30.2173,25.6766,45.3061,1.0212,1.7953,2.2192,3.4902,3.8503,6.0353Z" fill="#fff"/><path d="M612.3053,1643.237h27.9182v143.8741h-27.9182v-143.8741Z" fill="#fff"/><path d="M766.131,1126.1821c-28.2871,1.7635-51.3066-8.7524-71.862-25.7419-25.8277-21.3471-42.5668-48.4567-48.4054-81.4687-4.2712-24.15-.6029-47.7975,8.4405-70.6673,6.0607-15.3272,14.7729-28.9555,26.2184-40.5633,16.769-17.0067,37.1077-28.1886,60.6425-32.7114,28.0612-5.3928,55.099-2.2073,80.3655,11.8195,20.0161,11.1122,35.4487,26.8584,46.6437,46.8502,11.3989,20.3557,17.2525,42.2192,17.5059,65.4583.2994,27.4568-9.0703,51.98-24.7166,74.0773-13.0806,18.4739-29.5785,33.3491-50.0921,43.4128-14.3982,7.0636-29.4725,10.9217-44.7403,9.5346Z" fill="#025187"/><path d="M247.2905,999.5597c.4002-29.1006,8.4581-55.7996,25.8615-78.9666,19.5824-26.0676,45.4288-42.7433,78.3874-46.7963,34.1899-4.2044,65.091,3.6355,91.8615,25.8962,24.9374,20.7364,38.5453,47.6465,43.8755,79.3558,4.5179,26.8773-.0333,52.1974-12.2854,76.1195-13.3168,26.0008-32.6713,46.5016-58.6272,60.3193-13.6391,7.2607-28.3546,11.0145-43.7705,11.4543-32.9145.939-60.5201-10.9534-83.8919-34.1198-20.7695-20.5871-34.0843-44.8951-39.5937-73.4766-1.2475-6.4714-1.2445-13.184-1.8171-19.7856Z" fill="#025187"/><path d="M411.9393,1454.2051c5.4754,15.2891,10.9508,30.5783,16.6594,46.5187h-34.7245c5.5626-15.735,11.0442-31.2409,16.5259-46.7469.5131.076,1.0261.1522,1.5392.2282Z" fill="#025187"/><path d="M762.5331,1500.8108c5.6252-15.8754,11.1306-31.4127,16.636-46.9501.4666.0504.9332.1009,1.3998.1513,5.515,15.398,11.03,30.7958,16.7617,46.7988h-34.7975Z" fill="#025187"/></svg>